#define in_width 36
#define in_height 26
static char in_bits[] = {
   0x00, 0x00, 0x00, 0x00, 0x00, 0x00, 0x00, 0x00, 0x00, 0x00, 0x0c, 0x00,
   0x00, 0x00, 0x03, 0x3c, 0x00, 0x00, 0xc0, 0x03, 0x78, 0x00, 0x00, 0xe0,
   0x01, 0xe0, 0x01, 0x00, 0x78, 0x00, 0xc0, 0x03, 0x00, 0x3c, 0x00, 0x00,
   0x8f, 0x10, 0x0f, 0x00, 0x00, 0xde, 0xb0, 0x07, 0x00, 0x00, 0xf8, 0xf0,
   0x01, 0x00, 0x00, 0xf8, 0xf0, 0x01, 0x00, 0x00, 0xfc, 0xf0, 0x03, 0x00,
   0x00, 0x00, 0x00, 0x00, 0x00, 0x00, 0x00, 0x00, 0x00, 0x00, 0x00, 0xfc,
   0xf0, 0x03, 0x00, 0x00, 0xf8, 0xf0, 0x01, 0x00, 0x00, 0xf8, 0xf0, 0x01,
   0x00, 0x00, 0xde, 0xb0, 0x07, 0x00, 0x00, 0x8f, 0x10, 0x0f, 0x00, 0xc0,
   0x03, 0x00, 0x3c, 0x00, 0xe0, 0x01, 0x00, 0x78, 0x00, 0x78, 0x00, 0x00,
   0xe0, 0x01, 0x3c, 0x00, 0x00, 0xc0, 0x03, 0x0c, 0x00, 0x00, 0x00, 0x03,
   0x00, 0x00, 0x00, 0x00, 0x00, 0x00, 0x00, 0x00, 0x00, 0x00};
