#define out_width 36
#define out_height 26
static char out_bits[] = {
   0x00, 0x00, 0x00, 0x00, 0x00, 0x00, 0x00, 0x00, 0x00, 0x00, 0x7c, 0x00,
   0x00, 0xe0, 0x03, 0x3c, 0x00, 0x00, 0xc0, 0x03, 0x7c, 0x00, 0x00, 0xe0,
   0x03, 0xec, 0x01, 0x00, 0x78, 0x03, 0xc4, 0x03, 0x00, 0x3c, 0x02, 0x00,
   0x0f, 0x00, 0x0f, 0x00, 0x00, 0x1e, 0x80, 0x07, 0x00, 0x00, 0x78, 0xe0,
   0x01, 0x00, 0x00, 0xf0, 0xf0, 0x00, 0x00, 0x00, 0xc0, 0x30, 0x00, 0x00,
   0x00, 0x00, 0x00, 0x00, 0x00, 0x00, 0x00, 0x00, 0x00, 0x00, 0x00, 0xc0,
   0x30, 0x00, 0x00, 0x00, 0xf0, 0xf0, 0x00, 0x00, 0x00, 0x78, 0xe0, 0x01,
   0x00, 0x00, 0x1e, 0x80, 0x07, 0x00, 0x00, 0x0f, 0x00, 0x0f, 0x00, 0xc4,
   0x03, 0x00, 0x3c, 0x02, 0xec, 0x01, 0x00, 0x78, 0x03, 0x7c, 0x00, 0x00,
   0xe0, 0x03, 0x3c, 0x00, 0x00, 0xc0, 0x03, 0x7c, 0x00, 0x00, 0xe0, 0x03,
   0x00, 0x00, 0x00, 0x00, 0x00, 0x00, 0x00, 0x00, 0x00, 0x00};
